<!DOCTYPE svg PUBLIC "-//W3C//DTD SVG 1.1//EN" "https://www.w3.org/Graphics/SVG/1.1/DTD/svg11.dtd"><svg xmlns="http://www.w3.org/2000/svg" id="sfn-svg" class="sfn-workflow-graph" width="382" height="256">
    
    
<g transform="translate(12,19.453125)"><g class="nodes"><g class="node-container" transform="translate(178.71875,18.421875)"><g class="node anchor"><circle class="shape" x="-15.875" y="-8.421875" r="25.875"/><text class="label"><tspan xml:space="preserve" text-anchor="middle" alignment-baseline="central">Start</tspan></text></g></g><g class="node-container" transform="translate(178.71875,202.109375)"><g class="node anchor"><circle class="shape" x="-12.1875" y="-8.421875" r="22.1875"/><text class="label"><tspan xml:space="preserve" text-anchor="middle" alignment-baseline="central">End</tspan></text></g></g><g class="node-container" transform="translate(178.71875,110.265625)"><g class="node state Parallel NotYetStarted Container" transform="translate(-178.71875,-48.421875)"><rect class="shape" rx="19.36875" ry="19.36875" x="0" y="0" width="357.4375" height="96.84375"/><g class="branches" transform="translate(20,40)"><g class="branch" transform="translate(0,0)"><g class="nodes"><g class="node-container" transform="translate(71.828125,18.421875)"><g class="node state Task NotYetStarted"><rect class="shape" rx="5" ry="5" x="-71.828125" y="-18.421875" width="143.65625" height="36.84375"/><text class="label"><tspan xml:space="preserve" text-anchor="middle" alignment-baseline="central">MyWeatherLambda</tspan></text></g></g></g><g class="edges"/></g><g class="branch" transform="translate(163.65625,0)"><g class="nodes"><g class="node-container" transform="translate(76.890625,18.421875)"><g class="node state Task NotYetStarted"><rect class="shape" rx="5" ry="5" x="-76.890625" y="-18.421875" width="153.78125" height="36.84375"/><text class="label"><tspan xml:space="preserve" text-anchor="middle" alignment-baseline="central">MyKaratsubaLambda</tspan></text></g></g></g><g class="edges"/></g></g><path class="path" marker-end="url(#arrowhead1)" d="M178.71875,0L178.71875,3.333333333333333C178.71875,6.666666666666666,178.71875,13.333333333333332,164.23697916666666,16.666666666666664C149.75520833333331,20,120.79166666666666,20,106.30989583333333,23.33333333333333C91.828125,26.666666666666664,91.828125,33.33333333333333,91.828125,36.666666666666664L91.828125,40" style="fill: none;"/><path class="path" marker-end="url(#arrowhead2)" d="M178.71875,0L178.71875,3.333333333333333C178.71875,6.666666666666666,178.71875,13.333333333333332,192.35677083333331,16.666666666666664C205.99479166666666,20,233.27083333333331,20,246.90885416666666,23.33333333333333C260.546875,26.666666666666664,260.546875,33.33333333333333,260.546875,36.666666666666664L260.546875,40" style="fill: none;"/></g></g></g><g class="edges"><g class="edge"><path class="path" marker-end="url(#arrowhead3)" d="M178.71875,44.296875L178.71875,45.13802083333333C178.71875,45.979166666666664,178.71875,47.66145833333333,178.71875,50.58593749999999C178.71875,53.51041666666666,178.71875,57.67708333333333,178.71875,59.760416666666664L178.71875,61.84375" style="fill: none;"/><defs><marker id="arrowhead3" viewBox="0 0 10 10" refX="9" refY="5" markerUnits="strokeWidth" markerWidth="8" markerHeight="6" orient="auto"><path d="M 0 0 L 10 5 L 0 10 z"/></marker></defs></g><g class="edge"><path class="path" marker-end="url(#arrowhead4)" d="M178.71875,158.6875L178.71875,160.77083333333331C178.71875,162.85416666666666,178.71875,167.02083333333331,178.71875,170.55989583333331C178.71875,174.09895833333331,178.71875,177.01041666666666,178.71875,178.46614583333331L178.71875,179.921875" style="fill: none;"/><defs><marker id="arrowhead4" viewBox="0 0 10 10" refX="9" refY="5" markerUnits="strokeWidth" markerWidth="8" markerHeight="6" orient="auto"><path d="M 0 0 L 10 5 L 0 10 z"/></marker></defs></g></g></g><style xmlns="http://www.w3.org/1999/xhtml">.node &gt; .shape {stroke: #555555;stroke-width: 0.6px;fill: #FFFFFF;} path {stroke: #555;background-color: #555;stroke-width: 1px;} .node.state.NotYetStarted &gt; .shape,.node.state.Container &gt; .shape {stroke-dasharray: 5 2;} .node.state.Failed &gt; .shape,rect.legend.Failed {fill: #DE322F;} .node.state.CaughtError &gt; .shape,rect.legend.CaughtError {fill: #FFA500;} .node.state.Succeeded &gt; .shape,rect.legend.Succeeded {fill: #2BD62E;} .node.state.InProgress &gt; .shape,rect.legend.InProgress {fill: #53c9ed;} .node.state.Cancelled &gt; .shape,rect.legend.Cancelled {fill: #dddddd;} .node.anchor &gt; .shape {fill: #FFDA75;} .node.state.hovered:not(.selected):not(.NotYetStarted) &gt; .shape,.node.selected &gt; .shape {stroke: #555555;stroke-width: 2px;} .node.state.Container.Failed &gt; .shape {fill: #EE9592;} .node.state.Container.CaughtError &gt; .shape {fill: #FFD27F;} .node.state.Container.Succeeded &gt; .shape {fill: #91EA9A;} .node.state.Container.InProgress &gt; .shape {fill :#A9E4F7;} .node.state.Container.Cancelled &gt; .shape {fill: #EEEEEE;} marker {fill: #555555;} .node.anchor,.node.state.NotYetStarted {cursor: default;} .node.state {cursor: pointer;} tspan .label {font-weight: normal;font-size: 12px;text-shadow: none;} </style></svg>